# xmcd
#
# Track frame offsets: 
#        150
#        15593
#        44545
#        62759
#        88305
#        112779
#        131991
#        147321
#        172526
#        192646
#        215013
#        236851
#        256748
#        275719
#        291344
#
# Disc length: 4157 seconds
#
# Revision: 0
# Processed by: cddbd v1.5.1PL2 Copyright (c) Steve Scherf et al.
# Submitted via: ExactAudioCopy v0.95b2
#
DISCID=ea103b0f
DTITLE=Маша Распутина - Лучшие песни
DYEAR=1998
DGENRE=Pop
TTITLE0=Хулиганчики (Ой, мама, ой!..)
TTITLE1=Кружит музыка
TTITLE2=Ах, Москва
TTITLE3=Я была на Венере
TTITLE4=Отпустите меня в Гималаи
TTITLE5=Синий понедельничек
TTITLE6=Играй, музыкант
TTITLE7=Поиграй, гитара!
TTITLE8=Много разных на свете песен
TTITLE9=Эх, ма!
TTITLE10=Сторона ты моя, сторона
TTITLE11=Я родилась в Сибири
TTITLE12=Я и ты
TTITLE13=На белом мерседесе
TTITLE14=Живи страна
EXTD=
EXTT0=
EXTT1=
EXTT2=
EXTT3=
EXTT4=
EXTT5=
EXTT6=
EXTT7=
EXTT8=
EXTT9=
EXTT10=
EXTT11=
EXTT12=
EXTT13=
EXTT14=
PLAYORDER=
